<?xml version="1.0" encoding="UTF-8"?>
<svg xmlns="http://www.w3.org/2000/svg" xmlns:xlink="http://www.w3.org/1999/xlink" width="300pt" height="299.999988pt" viewBox="0 0 300 299.999988" version="1.2">
<defs>
<clipPath id="clip1">
  <path d="M 0 21.429688 L 300 21.429688 L 300 278.679688 L 0 278.679688 Z M 0 21.429688 "/>
</clipPath>
</defs>
<g id="surface1">
<g clip-path="url(#clip1)" clip-rule="nonzero">
<path style=" stroke:none;fill-rule:nonzero;fill:rgb(65.489197%,9.799194%,18.818665%);fill-opacity:1;" d="M 286.714844 53.820312 C 264.878906 19.441406 219.347656 16.675781 190.894531 26.414062 C 168.820312 33.988281 152.941406 55.023438 150.175781 58.628906 C 147.40625 55.023438 132.128906 34.40625 110.054688 26.894531 C 81.605469 17.15625 35.46875 19.441406 13.632812 53.820312 C 4.972656 67.464844 -22.273438 111.585938 36.792969 179.746094 C 36.792969 179.746094 92.671875 244.242188 144.28125 275.4375 C 146.625 276.820312 149.632812 278.683594 149.875 278.5625 C 150.113281 278.683594 153.421875 276.878906 155.769531 275.4375 C 207.378906 244.242188 263.558594 179.746094 263.558594 179.746094 C 322.625 111.585938 295.375 67.464844 286.714844 53.820312 Z M 286.714844 53.820312 "/>
</g>
<path style=" stroke:none;fill-rule:nonzero;fill:rgb(100%,100%,100%);fill-opacity:1;" d="M 140.730469 214.367188 C 138.6875 214.367188 136.820312 213.105469 136.101562 211.121094 L 100.792969 116.933594 L 87.4375 159.789062 C 86.777344 161.835938 84.851562 163.398438 82.6875 163.398438 L 44.792969 163.398438 C 42.023438 163.398438 39.800781 161.054688 39.800781 158.289062 C 39.800781 155.523438 42.023438 153.179688 44.792969 153.179688 L 79.015625 153.179688 L 95.617188 100.105469 C 96.28125 98.0625 98.085938 96.679688 100.25 96.617188 C 102.414062 96.558594 104.28125 97.878906 105.0625 99.863281 L 139.949219 192.910156 L 158.296875 122.585938 C 158.835938 120.539062 160.582031 119.097656 162.625 118.917969 C 164.671875 118.738281 166.65625 119.820312 167.558594 121.742188 L 182.175781 152.457031 L 198.234375 88.082031 C 198.777344 85.980469 200.640625 84.417969 202.804688 84.355469 C 204.972656 84.234375 207.015625 85.617188 207.738281 87.664062 L 219.527344 121.140625 L 265.179688 121.261719 C 267.949219 121.261719 270.113281 123.125 270.113281 125.832031 C 270.113281 128.59375 267.886719 130.398438 265.121094 130.398438 L 215.917969 130.640625 C 213.8125 130.640625 211.949219 129.496094 211.226562 127.511719 L 203.769531 106.414062 L 188.308594 168.207031 C 187.828125 170.25 186.085938 171.753906 183.980469 171.992188 C 181.875 172.171875 179.890625 171.089844 178.988281 169.167969 L 164.25 138.273438 L 145.363281 210.640625 C 144.820312 212.746094 142.957031 214.246094 140.792969 214.367188 C 140.910156 214.367188 140.851562 214.367188 140.730469 214.367188 Z M 140.730469 214.367188 "/>
<path style=" stroke:none;fill-rule:nonzero;fill:rgb(100%,100%,100%);fill-opacity:1;" d="M 55.015625 157.207031 C 55.015625 157.914062 54.949219 158.613281 54.8125 159.304688 C 54.671875 160 54.46875 160.671875 54.199219 161.324219 C 53.925781 161.976562 53.59375 162.597656 53.203125 163.183594 C 52.808594 163.769531 52.363281 164.316406 51.863281 164.8125 C 51.363281 165.3125 50.820312 165.757812 50.230469 166.152344 C 49.644531 166.542969 49.023438 166.875 48.371094 167.144531 C 47.71875 167.417969 47.042969 167.621094 46.351562 167.757812 C 45.65625 167.898438 44.957031 167.964844 44.25 167.964844 C 43.542969 167.964844 42.84375 167.898438 42.148438 167.757812 C 41.457031 167.621094 40.785156 167.417969 40.128906 167.144531 C 39.476562 166.875 38.855469 166.542969 38.269531 166.152344 C 37.679688 165.757812 37.136719 165.3125 36.636719 164.8125 C 36.136719 164.316406 35.691406 163.769531 35.296875 163.183594 C 34.90625 162.597656 34.574219 161.976562 34.304688 161.324219 C 34.03125 160.671875 33.828125 160 33.691406 159.304688 C 33.550781 158.613281 33.484375 157.914062 33.484375 157.207031 C 33.484375 156.5 33.550781 155.800781 33.691406 155.105469 C 33.828125 154.414062 34.03125 153.742188 34.304688 153.089844 C 34.574219 152.4375 34.90625 151.816406 35.296875 151.230469 C 35.691406 150.640625 36.136719 150.097656 36.636719 149.597656 C 37.136719 149.097656 37.679688 148.652344 38.269531 148.261719 C 38.855469 147.867188 39.476562 147.535156 40.128906 147.265625 C 40.785156 146.996094 41.457031 146.792969 42.148438 146.652344 C 42.84375 146.515625 43.542969 146.445312 44.25 146.445312 C 44.957031 146.445312 45.65625 146.515625 46.351562 146.652344 C 47.042969 146.792969 47.71875 146.996094 48.371094 147.265625 C 49.023438 147.535156 49.644531 147.867188 50.230469 148.261719 C 50.820312 148.652344 51.363281 149.097656 51.863281 149.597656 C 52.363281 150.097656 52.808594 150.640625 53.203125 151.230469 C 53.59375 151.816406 53.925781 152.4375 54.199219 153.089844 C 54.46875 153.742188 54.671875 154.414062 54.8125 155.105469 C 54.949219 155.800781 55.015625 156.5 55.015625 157.207031 Z M 55.015625 157.207031 "/>
<path style=" stroke:none;fill-rule:nonzero;fill:rgb(100%,100%,100%);fill-opacity:1;" d="M 280.640625 126.011719 C 280.640625 126.71875 280.570312 127.417969 280.433594 128.109375 C 280.296875 128.800781 280.089844 129.476562 279.820312 130.128906 C 279.550781 130.78125 279.21875 131.402344 278.824219 131.988281 C 278.433594 132.574219 277.988281 133.117188 277.488281 133.617188 C 276.988281 134.117188 276.441406 134.5625 275.855469 134.957031 C 275.265625 135.347656 274.648438 135.679688 273.992188 135.949219 C 273.339844 136.222656 272.667969 136.425781 271.972656 136.5625 C 271.28125 136.699219 270.582031 136.769531 269.875 136.769531 C 269.167969 136.769531 268.464844 136.699219 267.773438 136.5625 C 267.078125 136.425781 266.40625 136.222656 265.753906 135.949219 C 265.101562 135.679688 264.480469 135.347656 263.890625 134.957031 C 263.304688 134.5625 262.761719 134.117188 262.261719 133.617188 C 261.761719 133.117188 261.3125 132.574219 260.921875 131.988281 C 260.527344 131.402344 260.195312 130.78125 259.925781 130.128906 C 259.65625 129.476562 259.449219 128.800781 259.3125 128.109375 C 259.175781 127.417969 259.105469 126.71875 259.105469 126.011719 C 259.105469 125.304688 259.175781 124.605469 259.3125 123.910156 C 259.449219 123.21875 259.65625 122.546875 259.925781 121.894531 C 260.195312 121.242188 260.527344 120.621094 260.921875 120.035156 C 261.3125 119.445312 261.761719 118.902344 262.261719 118.402344 C 262.761719 117.902344 263.304688 117.457031 263.890625 117.066406 C 264.480469 116.671875 265.101562 116.339844 265.753906 116.070312 C 266.40625 115.800781 267.078125 115.597656 267.773438 115.457031 C 268.464844 115.320312 269.167969 115.25 269.875 115.25 C 270.582031 115.25 271.28125 115.320312 271.972656 115.457031 C 272.667969 115.597656 273.339844 115.800781 273.992188 116.070312 C 274.648438 116.339844 275.265625 116.671875 275.855469 117.066406 C 276.441406 117.457031 276.988281 117.902344 277.488281 118.402344 C 277.988281 118.902344 278.433594 119.445312 278.824219 120.035156 C 279.21875 120.621094 279.550781 121.242188 279.820312 121.894531 C 280.089844 122.546875 280.296875 123.21875 280.433594 123.910156 C 280.570312 124.605469 280.640625 125.304688 280.640625 126.011719 Z M 280.640625 126.011719 "/>
</g>
</svg>
