<?xml version="1.0" encoding="UTF-8"?>
<svg xmlns="http://www.w3.org/2000/svg" xmlns:xlink="http://www.w3.org/1999/xlink" width="300pt" height="299.999988pt" viewBox="0 0 300 299.999988" version="1.2">
<defs>
<clipPath id="clip1">
  <path d="M 60.765625 73.515625 L 239.148438 73.515625 L 239.148438 226.515625 L 60.765625 226.515625 Z M 60.765625 73.515625 "/>
</clipPath>
</defs>
<g id="surface1">
<g clip-path="url(#clip1)" clip-rule="nonzero">
<path style=" stroke:none;fill-rule:nonzero;fill:rgb(65.489197%,9.799194%,18.818665%);fill-opacity:1;" d="M 230.9375 92.78125 C 217.976562 72.332031 190.953125 70.6875 174.066406 76.480469 C 160.964844 80.984375 151.539062 93.496094 149.898438 95.640625 C 148.253906 93.496094 139.1875 81.234375 126.085938 76.765625 C 109.199219 70.976562 81.816406 72.332031 68.859375 92.78125 C 63.71875 100.894531 47.546875 127.136719 82.601562 167.671875 C 82.601562 167.671875 115.769531 206.03125 146.398438 224.585938 C 147.789062 225.40625 149.574219 226.515625 149.71875 226.441406 C 149.859375 226.515625 151.824219 225.441406 153.21875 224.585938 C 183.847656 206.03125 217.191406 167.671875 217.191406 167.671875 C 252.25 127.136719 236.078125 100.894531 230.9375 92.78125 Z M 230.9375 92.78125 "/>
</g>
<path style=" stroke:none;fill-rule:nonzero;fill:rgb(100%,100%,100%);fill-opacity:1;" d="M 144.292969 188.265625 C 143.078125 188.265625 141.972656 187.511719 141.542969 186.332031 L 120.585938 130.316406 L 112.660156 155.804688 C 112.269531 157.019531 111.125 157.949219 109.839844 157.949219 L 87.351562 157.949219 C 85.707031 157.949219 84.386719 156.554688 84.386719 154.910156 C 84.386719 153.265625 85.707031 151.871094 87.351562 151.871094 L 107.664062 151.871094 L 117.515625 120.308594 C 117.910156 119.089844 118.980469 118.269531 120.265625 118.234375 C 121.550781 118.199219 122.65625 118.984375 123.121094 120.164062 L 143.828125 175.503906 L 154.714844 133.675781 C 155.039062 132.460938 156.074219 131.605469 157.285156 131.496094 C 158.5 131.390625 159.679688 132.03125 160.214844 133.175781 L 168.890625 151.445312 L 178.421875 113.15625 C 178.742188 111.90625 179.847656 110.976562 181.132812 110.941406 C 182.417969 110.871094 183.632812 111.691406 184.0625 112.90625 L 191.058594 132.820312 L 218.15625 132.890625 C 219.796875 132.890625 221.082031 134 221.082031 135.605469 C 221.082031 137.25 219.761719 138.324219 218.121094 138.324219 L 188.917969 138.46875 C 187.667969 138.46875 186.5625 137.789062 186.132812 136.609375 L 181.707031 124.0625 L 172.53125 160.808594 C 172.246094 162.023438 171.210938 162.917969 169.960938 163.0625 C 168.710938 163.167969 167.53125 162.527344 166.996094 161.382812 L 158.25 143.007812 L 147.039062 186.046875 C 146.71875 187.300781 145.613281 188.191406 144.328125 188.265625 C 144.398438 188.265625 144.363281 188.265625 144.292969 188.265625 Z M 144.292969 188.265625 "/>
<path style=" stroke:none;fill-rule:nonzero;fill:rgb(100%,100%,100%);fill-opacity:1;" d="M 93.417969 154.269531 C 93.417969 154.6875 93.378906 155.105469 93.296875 155.515625 C 93.214844 155.929688 93.09375 156.328125 92.933594 156.714844 C 92.773438 157.105469 92.574219 157.472656 92.34375 157.824219 C 92.109375 158.171875 91.84375 158.496094 91.546875 158.792969 C 91.25 159.089844 90.929688 159.355469 90.578125 159.589844 C 90.230469 159.820312 89.863281 160.019531 89.476562 160.179688 C 89.085938 160.339844 88.6875 160.460938 88.277344 160.542969 C 87.863281 160.625 87.449219 160.667969 87.027344 160.667969 C 86.609375 160.667969 86.195312 160.625 85.78125 160.542969 C 85.371094 160.460938 84.972656 160.339844 84.582031 160.179688 C 84.195312 160.019531 83.828125 159.820312 83.480469 159.589844 C 83.128906 159.355469 82.808594 159.089844 82.511719 158.792969 C 82.214844 158.496094 81.949219 158.171875 81.714844 157.824219 C 81.484375 157.472656 81.285156 157.105469 81.125 156.714844 C 80.964844 156.328125 80.84375 155.929688 80.761719 155.515625 C 80.679688 155.105469 80.640625 154.6875 80.640625 154.269531 C 80.640625 153.847656 80.679688 153.429688 80.761719 153.019531 C 80.84375 152.605469 80.964844 152.207031 81.125 151.820312 C 81.285156 151.429688 81.484375 151.0625 81.714844 150.710938 C 81.949219 150.363281 82.214844 150.039062 82.511719 149.742188 C 82.808594 149.445312 83.128906 149.179688 83.480469 148.949219 C 83.828125 148.714844 84.195312 148.515625 84.582031 148.355469 C 84.972656 148.195312 85.371094 148.074219 85.78125 147.992188 C 86.195312 147.910156 86.609375 147.867188 87.027344 147.867188 C 87.449219 147.867188 87.863281 147.910156 88.277344 147.992188 C 88.6875 148.074219 89.085938 148.195312 89.476562 148.355469 C 89.863281 148.515625 90.230469 148.714844 90.578125 148.949219 C 90.929688 149.179688 91.25 149.445312 91.546875 149.742188 C 91.84375 150.039062 92.109375 150.363281 92.34375 150.710938 C 92.574219 151.0625 92.773438 151.429688 92.933594 151.820312 C 93.09375 152.207031 93.214844 152.605469 93.296875 153.019531 C 93.378906 153.429688 93.417969 153.847656 93.417969 154.269531 Z M 93.417969 154.269531 "/>
<path style=" stroke:none;fill-rule:nonzero;fill:rgb(100%,100%,100%);fill-opacity:1;" d="M 227.332031 135.714844 C 227.332031 136.132812 227.289062 136.550781 227.207031 136.964844 C 227.125 137.375 227.003906 137.773438 226.84375 138.164062 C 226.683594 138.550781 226.488281 138.921875 226.253906 139.269531 C 226.019531 139.617188 225.753906 139.941406 225.457031 140.238281 C 225.160156 140.535156 224.839844 140.800781 224.488281 141.035156 C 224.140625 141.269531 223.773438 141.464844 223.386719 141.625 C 222.996094 141.789062 222.597656 141.910156 222.1875 141.992188 C 221.773438 142.074219 221.359375 142.113281 220.941406 142.113281 C 220.519531 142.113281 220.105469 142.074219 219.691406 141.992188 C 219.28125 141.910156 218.882812 141.789062 218.496094 141.625 C 218.105469 141.464844 217.738281 141.269531 217.390625 141.035156 C 217.039062 140.800781 216.71875 140.535156 216.421875 140.238281 C 216.125 139.941406 215.859375 139.617188 215.625 139.269531 C 215.394531 138.921875 215.195312 138.550781 215.035156 138.164062 C 214.875 137.773438 214.753906 137.375 214.671875 136.964844 C 214.589844 136.550781 214.550781 136.132812 214.550781 135.714844 C 214.550781 135.292969 214.589844 134.878906 214.671875 134.464844 C 214.753906 134.054688 214.875 133.652344 215.035156 133.265625 C 215.195312 132.878906 215.394531 132.507812 215.625 132.160156 C 215.859375 131.808594 216.125 131.488281 216.421875 131.191406 C 216.71875 130.894531 217.039062 130.628906 217.390625 130.394531 C 217.738281 130.160156 218.105469 129.964844 218.496094 129.804688 C 218.882812 129.640625 219.28125 129.519531 219.691406 129.4375 C 220.105469 129.355469 220.519531 129.316406 220.941406 129.316406 C 221.359375 129.316406 221.773438 129.355469 222.1875 129.4375 C 222.597656 129.519531 222.996094 129.640625 223.386719 129.804688 C 223.773438 129.964844 224.140625 130.160156 224.488281 130.394531 C 224.839844 130.628906 225.160156 130.894531 225.457031 131.191406 C 225.753906 131.488281 226.019531 131.808594 226.253906 132.160156 C 226.488281 132.507812 226.683594 132.878906 226.84375 133.265625 C 227.003906 133.652344 227.125 134.054688 227.207031 134.464844 C 227.289062 134.878906 227.332031 135.292969 227.332031 135.714844 Z M 227.332031 135.714844 "/>
</g>
</svg>
