<?xml version="1.0" encoding="UTF-8"?>
<svg xmlns="http://www.w3.org/2000/svg" xmlns:xlink="http://www.w3.org/1999/xlink" width="375pt" height="374.999991pt" viewBox="0 0 375 374.999991" version="1.2">
<defs>
<clipPath id="clip1">
  <path d="M 40.378906 42 L 334.378906 42 L 334.378906 293.964844 L 40.378906 293.964844 Z M 40.378906 42 "/>
</clipPath>
</defs>
<g id="surface1">
<rect x="0" y="0" width="375" height="374.999991" style="fill:rgb(100%,100%,100%);fill-opacity:1;stroke:none;"/>
<rect x="0" y="0" width="375" height="374.999991" style="fill:rgb(100%,100%,100%);fill-opacity:1;stroke:none;"/>
<rect x="0" y="0" width="375" height="374.999991" style="fill:rgb(65.489197%,9.799194%,18.818665%);fill-opacity:1;stroke:none;"/>
<g clip-path="url(#clip1)" clip-rule="nonzero">
<path style=" stroke:none;fill-rule:nonzero;fill:rgb(100%,100%,100%);fill-opacity:1;" d="M 321.375 73.699219 C 299.972656 40.019531 255.347656 37.308594 227.464844 46.847656 C 205.832031 54.265625 190.269531 74.875 187.558594 78.40625 C 184.84375 74.875 169.871094 54.679688 148.238281 47.320312 C 120.355469 37.78125 75.140625 40.019531 53.742188 73.699219 C 45.25 87.0625 18.546875 130.28125 76.4375 197.050781 C 76.4375 197.050781 131.199219 260.230469 181.78125 290.789062 C 184.078125 292.140625 187.027344 293.96875 187.261719 293.851562 C 187.496094 293.96875 190.738281 292.199219 193.039062 290.789062 C 243.617188 260.230469 298.675781 197.050781 298.675781 197.050781 C 356.566406 130.28125 329.863281 87.0625 321.375 73.699219 Z M 321.375 73.699219 "/>
</g>
<path style=" stroke:none;fill-rule:nonzero;fill:rgb(65.489197%,9.799194%,18.818665%);fill-opacity:1;" d="M 178.300781 230.964844 C 176.296875 230.964844 174.46875 229.730469 173.761719 227.785156 L 139.160156 135.519531 L 126.070312 177.503906 C 125.421875 179.503906 123.539062 181.035156 121.414062 181.035156 L 84.277344 181.035156 C 81.566406 181.035156 79.382812 178.738281 79.382812 176.03125 C 79.382812 173.324219 81.566406 171.027344 84.277344 171.027344 L 117.820312 171.027344 L 134.089844 119.035156 C 134.738281 117.03125 136.507812 115.679688 138.628906 115.621094 C 140.75 115.5625 142.578125 116.855469 143.34375 118.800781 L 177.535156 209.945312 L 195.515625 141.054688 C 196.046875 139.054688 197.753906 137.640625 199.757812 137.464844 C 201.765625 137.289062 203.710938 138.347656 204.59375 140.230469 L 218.917969 170.320312 L 234.65625 107.257812 C 235.1875 105.199219 237.015625 103.667969 239.136719 103.609375 C 241.261719 103.492188 243.265625 104.84375 243.972656 106.847656 L 255.527344 139.644531 L 300.269531 139.761719 C 302.980469 139.761719 305.101562 141.585938 305.101562 144.234375 C 305.101562 146.945312 302.921875 148.710938 300.210938 148.710938 L 251.988281 148.945312 C 249.925781 148.945312 248.097656 147.828125 247.390625 145.882812 L 240.082031 125.21875 L 224.929688 185.746094 C 224.460938 187.746094 222.75 189.21875 220.6875 189.457031 C 218.625 189.632812 216.679688 188.574219 215.792969 186.6875 L 201.351562 156.421875 L 182.839844 227.316406 C 182.308594 229.375 180.484375 230.847656 178.359375 230.964844 C 178.480469 230.964844 178.417969 230.964844 178.300781 230.964844 Z M 178.300781 230.964844 "/>
<path style=" stroke:none;fill-rule:nonzero;fill:rgb(65.489197%,9.799194%,18.818665%);fill-opacity:1;" d="M 94.296875 174.972656 C 94.296875 175.664062 94.230469 176.347656 94.09375 177.027344 C 93.960938 177.707031 93.761719 178.363281 93.496094 179.003906 C 93.230469 179.644531 92.90625 180.25 92.519531 180.828125 C 92.132812 181.402344 91.699219 181.933594 91.207031 182.421875 C 90.71875 182.914062 90.183594 183.351562 89.609375 183.734375 C 89.03125 184.117188 88.425781 184.445312 87.785156 184.707031 C 87.144531 184.972656 86.484375 185.171875 85.804688 185.308594 C 85.125 185.441406 84.4375 185.511719 83.746094 185.511719 C 83.054688 185.511719 82.367188 185.441406 81.6875 185.308594 C 81.007812 185.171875 80.347656 184.972656 79.707031 184.707031 C 79.066406 184.445312 78.460938 184.117188 77.882812 183.734375 C 77.308594 183.351562 76.773438 182.914062 76.285156 182.421875 C 75.792969 181.933594 75.355469 181.402344 74.972656 180.828125 C 74.585938 180.25 74.261719 179.644531 73.996094 179.003906 C 73.730469 178.363281 73.53125 177.707031 73.398438 177.027344 C 73.261719 176.347656 73.195312 175.664062 73.195312 174.972656 C 73.195312 174.277344 73.261719 173.59375 73.398438 172.914062 C 73.53125 172.234375 73.730469 171.578125 73.996094 170.9375 C 74.261719 170.296875 74.585938 169.691406 74.972656 169.117188 C 75.355469 168.539062 75.792969 168.007812 76.285156 167.519531 C 76.773438 167.027344 77.308594 166.59375 77.882812 166.207031 C 78.460938 165.824219 79.066406 165.5 79.707031 165.234375 C 80.347656 164.96875 81.007812 164.769531 81.6875 164.632812 C 82.367188 164.5 83.054688 164.429688 83.746094 164.429688 C 84.4375 164.429688 85.125 164.5 85.804688 164.632812 C 86.484375 164.769531 87.144531 164.96875 87.785156 165.234375 C 88.425781 165.5 89.03125 165.824219 89.609375 166.207031 C 90.183594 166.59375 90.71875 167.027344 91.207031 167.519531 C 91.699219 168.007812 92.132812 168.539062 92.519531 169.117188 C 92.90625 169.691406 93.230469 170.296875 93.496094 170.9375 C 93.761719 171.578125 93.960938 172.234375 94.09375 172.914062 C 94.230469 173.59375 94.296875 174.277344 94.296875 174.972656 Z M 94.296875 174.972656 "/>
<path style=" stroke:none;fill-rule:nonzero;fill:rgb(65.489197%,9.799194%,18.818665%);fill-opacity:1;" d="M 315.417969 144.414062 C 315.417969 145.105469 315.351562 145.789062 315.214844 146.46875 C 315.082031 147.148438 314.882812 147.804688 314.617188 148.445312 C 314.351562 149.085938 314.027344 149.691406 313.640625 150.269531 C 313.257812 150.84375 312.820312 151.375 312.328125 151.863281 C 311.839844 152.355469 311.304688 152.792969 310.730469 153.175781 C 310.152344 153.558594 309.546875 153.882812 308.90625 154.148438 C 308.265625 154.414062 307.605469 154.613281 306.925781 154.75 C 306.246094 154.882812 305.558594 154.953125 304.867188 154.953125 C 304.175781 154.953125 303.488281 154.882812 302.808594 154.75 C 302.128906 154.613281 301.46875 154.414062 300.828125 154.148438 C 300.1875 153.882812 299.582031 153.558594 299.003906 153.175781 C 298.429688 152.792969 297.894531 152.355469 297.40625 151.863281 C 296.917969 151.375 296.480469 150.84375 296.09375 150.269531 C 295.707031 149.691406 295.382812 149.085938 295.117188 148.445312 C 294.851562 147.804688 294.652344 147.148438 294.519531 146.46875 C 294.382812 145.789062 294.316406 145.105469 294.316406 144.414062 C 294.316406 143.71875 294.382812 143.035156 294.519531 142.355469 C 294.652344 141.675781 294.851562 141.019531 295.117188 140.378906 C 295.382812 139.738281 295.707031 139.132812 296.09375 138.558594 C 296.480469 137.980469 296.917969 137.449219 297.40625 136.960938 C 297.894531 136.46875 298.429688 136.035156 299.003906 135.648438 C 299.582031 135.265625 300.1875 134.941406 300.828125 134.675781 C 301.46875 134.410156 302.128906 134.210938 302.808594 134.074219 C 303.488281 133.941406 304.175781 133.871094 304.867188 133.871094 C 305.558594 133.871094 306.246094 133.941406 306.925781 134.074219 C 307.605469 134.210938 308.265625 134.410156 308.90625 134.675781 C 309.546875 134.941406 310.152344 135.265625 310.730469 135.648438 C 311.304688 136.035156 311.839844 136.46875 312.328125 136.960938 C 312.820312 137.449219 313.257812 137.980469 313.640625 138.558594 C 314.027344 139.132812 314.351562 139.738281 314.617188 140.378906 C 314.882812 141.019531 315.082031 141.675781 315.214844 142.355469 C 315.351562 143.035156 315.417969 143.71875 315.417969 144.414062 Z M 315.417969 144.414062 "/>
</g>
</svg>
